# 
# Generated by Sweet Home 3D - lun ago 30 12:17:53 CDT 2021
# http://www.sweethome3d.com/
# 
mtllib Cuadro_vat.mtl
g ground_1
usemtl ground_1
v 635.5 0.0 283.56018
v 635.5 0.0 285.1602
v 696.7 0.0 285.1602
v 696.7 0.0 283.56018
vn 0.0 1.0 0.0
vn 0.0 0.0 0.0
f 1//1 2//1 3//1
f 1//1 3//1 4//1
g 2
usemtl 2
v 694.7014 151.92075 283.658
v 694.7014 151.92075 283.7581
v 637.4928 151.92075 283.7581
v 637.49286 151.92075 283.658
v 694.7014 195.9578 283.658
v 637.49286 195.9578 283.658
v 637.4928 195.9578 283.7581
v 694.7014 195.9578 283.7581
vt 0.0 1.0 0
vt 0.0 0.0 0
vt 1.0 0.0 0
vt 1.0 1.0 0
vn -0.0 -1.0 -0.0000382
vn 0.0 -1.0 -0.0000382
vn 0.0 1.0 0.0000382
vn 0.99999994 -0.0000004 0.0003721
vn 1.0 0.0000005 0
vn 0.0 -0.0000001 1.0
vn -1.0 -0.0000002 -0.0001908
vn -1.0 -0.0000003 -0.000229
vn 0.0 0.0000001 -1.0
vn 0.0 0.0000001 -1.0
f 5/1/3 6/2/3 7/3/3
f 5/1/4 7/3/4 8/4/4
f 9/1/5 10/2/5 11/3/5
f 9/1/5 11/3/5 12/4/5
f 5/1/6 9/2/6 12/3/6
f 5/1/7 12/3/7 6/4/7
f 6/1/8 12/2/8 11/3/8
f 6/1/8 11/3/8 7/4/8
f 7/1/9 11/2/9 10/3/9
f 7/1/10 10/3/10 8/4/10
f 9/1/11 5/2/11 8/3/11
f 9/1/12 8/3/12 10/4/12
g 3
usemtl Aluminium
v 637.51294 195.88612 283.5653
v 636.5056 196.89384 283.56424
v 635.5037 197.8962 283.56265
v 635.5 197.9 284.96786
v 635.79456 197.60535 285.06943
v 636.50574 196.89394 285.10477
v 637.2168 196.18248 285.06943
v 637.51135 195.88777 284.96786
v 637.5095 152.0065 283.56323
v 636.50574 151.00253 283.5622
v 635.5072 150.00395 283.56058
v 635.5034 150.00023 284.9691
v 635.79694 150.29382 285.0712
v 636.5056 151.00261 285.10675
v 637.21436 151.71136 285.0712
v 637.50793 152.00491 284.9691
v 694.68805 195.88942 284.96927
v 694.6864 195.88785 283.56284
v 694.98157 196.18332 285.07147
v 695.69006 196.89296 285.10703
v 696.39856 197.60262 285.07147
v 696.69196 197.89659 284.96927
v 696.6882 197.89287 283.56018
v 695.68994 196.89307 283.56177
v 637.5156 195.88966 283.56284
v 636.51013 196.89294 283.56177
v 635.5101 197.8909 283.56018
v 635.50635 197.8947 284.96927
v 635.80035 197.60136 285.07147
v 636.51025 196.89307 285.10703
v 637.22003 196.18474 285.07147
v 637.51404 195.8913 284.96927
v 637.5156 195.8914 284.96927
v 637.5173 195.89297 283.56284
v 694.69434 152.00676 283.56323
v 695.698 151.00261 283.5622
v 696.6962 150.00378 283.56058
v 696.69995 150.0 284.9691
v 696.40643 150.29361 285.0712
v 695.6979 151.00252 285.10675
v 694.9894 151.71146 285.0712
v 694.6959 152.00513 284.9691
v 695.6909 196.89595 283.5622
v 694.6871 195.892 283.56323
v 696.68945 197.89452 283.5606
v 696.69324 197.89825 284.96912
v 696.3997 197.60464 285.07123
v 695.69104 196.89587 285.10675
v 694.9823 196.18713 285.07123
v 694.6887 195.89359 284.96912
vn 1.0 0.0 0.0
vn 0.9616954 -0.0000447 0.27412045
vn 0.7075617 0.000005 -0.7066515
vn 0.5079403 0.0000171 0.8613923
vn 0.3306433 0.0000386 0.9437558
vn -0.7045214 -0.0000711 -0.7096827
vn 0.3173467 0.000042 -0.94830966
vn 0.0010056271 0.0000467 -0.99999946
vn 0.0012145259 0.0000455 -0.9999993
vn -0.4454784 0.000007 -0.8952927
vn -0.92736185 -0.0000571 0.37416574
vn -0.65904 -0.0000206 0.7521079
vn -0.23682547 0.0000184 0.97155213
vn -0.1430424 0.0000326 0.98971653
vn -0.016562056 0.0000402 0.99986285
vn 0.14393203 0.0000333 0.9895876
vn 0.65828896 -0.000023 0.7527653
vn 0.99999934 -0.0000777 0.0011507057
vn 0.44709584 -0.0009429 -0.8944856
vn 0.31645116 -0.015865946 0.94847614
vn 0.3187047 0.13658084 0.9379622
vn 0.40802813 0.8155446 -0.41036585
vn 0.31613412 -0.0013417369 -0.9487136
vn -0 -0.001055212 -0.99999946
vn -0 -0.001234876 -0.9999992
vn -0.0000143 0.44551128 -0.89527637
vn -0.0000292 0.927424 0.37401167
vn -0.0000191 0.6599536 0.75130635
vn -0.0000061 0.23789325 0.9712913
vn -0.0000003 0.01669468 0.99986064
vn -0.0000032 -0.14428195 0.98953664
vn -0.0000068 -0.23785755 0.97130007
vn -0.0000206 -0.659198 0.7519694
vn -0.00003 -0.9263104 0.3767612
vn -0.0000323 -0.99999934 0.0011433387
vn -0.0000317 -0.99999934 0.0011189338
vn -0.55506426 0.8318073 -0.0002807
vn -0.06747124 0.99772066 0.0010348371
vn -0.8954346 0.4451904 -0.001521895
vn -0 0.0012330083 -0.9999992
vn -0 0.0010524413 -0.99999946
vn -0.0003509 0.0007015 -0.9999997
vn -0.0006166 0.0007067 -0.9999996
vn -0.0000013 -0.44551986 -0.8952721
vn 0.2660128 -0.5333271 -0.802994
vn -0.0000031 -0.9273685 0.37414926
vn 0.57931787 -0.41217318 0.7032099
vn -0.0000009 -0.23771231 0.9713356
vn 0.12003448 -0.07274218 0.99010116
vn -0.0000001 -0.016694188 0.99986064
vn 0.008347274 0.008351227 0.99993026
vn -0.0000002 0.14412013 0.9895602
vn -0.07278355 0.120011926 0.99010086
vn -0.0000022 0.6590758 0.7520765
vn -0.41141185 0.57811296 0.7046458
vn -0.0000042 0.99999934 0.0011451736
vn -0.0000047 0.99999934 0.0011628383
vn 0.0000039 -0.92631865 -0.376741
vn 0.0000047 -0.99999934 -0.0011275079
vn 0.0000042 -0.99999934 -0.0011451726
vn 0.5781755 -0.41133 -0.70464224
vn 0.0000006 -0.2377103 -0.9713361
vn 0.120035306 -0.072728194 -0.9901021
vn 0 -0.016696142 -0.99986064
vn 0.008347881 0.008351188 -0.99993026
vn 0.0000005 0.14409876 -0.9895633
vn -0.07277146 0.12001466 -0.9901014
vn 0.0000024 0.65982336 -0.7514207
vn -0.41222584 0.579288 -0.7032036
vn 0.0000029 0.893288 0.44948477
vn -0.5333131 0.26597297 0.8030165
vn -0 -0.0014135715 0.999999
vn 0.0007068 -0.0006164 0.9999996
vn 0 -0.0010523364 0.99999946
vn 0.0007016 -0.0003507 0.9999997
vn 0.0012328936 0.0000001 0.9999992
vn 0.0010522844 0 0.99999946
vn -0.44547337 -0.0000631 0.8952952
vn -0.9273552 -0.0001304 -0.37418228
vn -0.23772381 -0.0000335 -0.9713328
vn -0.016703546 -0.0000023 -0.9998605
vn 0.14406946 0.0000228 -0.9895676
vn 0.6590629 0.0001073 -0.7520878
vn 0.99999934 0.0001649 -0.001127446
vn 0.99999934 0.0001643 -0.001145296
vn -0.99999934 -0.0001643 0.0011452973
vn -0.9262914 -0.0001522 0.37680796
vn -0.99999934 -0.0001649 0.0011631473
vn -0.2377214 -0.0000384 0.9713334
vn -0.016701963 -0.0000028 0.9998605
vn 0.14409283 0.0000205 0.9895642
vn 0.6598218 0.0000927 0.7514221
vn 0.893268 0.0001258 -0.4495246
vn -0.001413582 -0.0000001 -0.999999
vn -0.0010524304 -0 -0.99999946
f 13/4/13 14/3/13 14/2/13
f 13/4/13 14/2/13 13/1/13
f 14/4/13 15/3/13 15/2/13
f 14/4/13 15/2/13 14/1/13
f 15/4/13 16/3/13 16/2/13
f 15/4/13 16/2/13 15/1/13
f 16/4/13 17/3/13 17/2/13
f 16/4/13 17/2/13 16/1/13
f 17/4/13 18/3/13 18/2/13
f 17/4/13 18/2/13 17/1/13
f 18/4/13 19/3/13 19/2/13
f 18/4/13 19/2/13 18/1/13
f 19/4/13 20/3/13 20/2/13
f 19/4/13 20/2/13 19/1/13
f 13/2/13 20/1/13 20/4/13
f 13/2/13 20/4/13 13/3/13
f 20/4/13 13/3/13 13/2/13
f 20/4/13 13/2/13 20/1/13
f 19/4/13 20/3/13 20/2/13
f 19/4/13 20/2/13 19/1/13
f 18/4/13 19/3/13 19/2/13
f 18/4/13 19/2/13 18/1/13
f 17/4/13 18/3/13 18/2/13
f 17/4/13 18/2/13 17/1/13
f 16/4/13 17/3/13 17/2/13
f 16/4/13 17/2/13 16/1/13
f 15/4/13 16/3/13 16/2/13
f 15/4/13 16/2/13 15/1/13
f 14/4/13 15/3/13 15/2/13
f 14/4/13 15/2/13 14/1/13
f 13/4/13 14/3/13 14/2/13
f 13/4/13 14/2/13 13/1/13
f 13/4/13 14/3/13 14/2/13
f 13/4/13 14/2/13 13/1/13
f 14/4/13 15/3/13 15/2/13
f 14/4/13 15/2/13 14/1/13
f 15/4/13 16/3/13 16/2/13
f 15/4/13 16/2/13 15/1/13
f 16/4/13 17/3/13 17/2/13
f 16/4/13 17/2/13 16/1/13
f 17/4/13 18/3/13 18/2/13
f 17/4/13 18/2/13 17/1/13
f 18/4/13 19/3/13 19/2/13
f 18/4/13 19/2/13 18/1/13
f 19/4/13 20/3/13 20/2/13
f 19/4/13 20/2/13 19/1/13
f 20/4/13 13/3/13 13/2/13
f 20/4/13 13/2/13 20/1/13
f 20/4/14 13/3/15 13/2/13
f 20/4/14 13/2/13 20/1/13
f 19/4/16 20/3/14 20/2/13
f 19/4/16 20/2/13 19/1/13
f 18/4/17 19/3/16 19/2/13
f 18/4/17 19/2/13 18/1/13
f 17/4/13 18/3/17 18/2/13
f 17/4/13 18/2/13 17/1/13
f 16/4/13 17/3/13 17/2/13
f 16/4/13 17/2/13 16/1/13
f 15/4/18 16/3/13 16/2/13
f 15/4/18 16/2/13 15/1/13
f 14/4/19 15/3/18 15/2/13
f 14/4/19 15/2/13 14/1/13
f 13/4/15 14/3/19 14/2/13
f 13/4/15 14/2/13 13/1/13
f 13/1/15 21/4/20 22/3/21
f 13/1/15 22/3/21 14/2/19
f 14/1/19 22/4/21 23/3/22
f 14/1/19 23/3/22 15/2/18
f 15/1/18 23/4/22 24/3/23
f 15/1/18 24/3/23 16/2/24
f 16/1/24 24/4/23 25/3/25
f 16/1/24 25/3/25 17/2/26
f 17/1/26 25/4/25 26/3/27
f 17/1/26 26/3/27 18/2/17
f 18/1/17 26/4/27 27/3/28
f 18/1/17 27/3/28 19/2/16
f 19/1/16 27/4/28 28/3/29
f 19/1/16 28/3/29 20/2/14
f 20/1/14 28/4/29 21/3/30
f 20/1/14 21/3/30 13/2/15
f 29/4/13 30/3/31 30/2/13
f 29/4/13 30/2/13 29/1/13
f 31/4/13 29/3/13 29/2/13
f 31/4/13 29/2/13 31/1/13
f 32/4/32 31/3/13 31/2/13
f 32/4/32 31/2/13 32/1/13
f 33/4/33 32/3/32 32/2/13
f 33/4/33 32/2/13 33/1/13
f 34/4/13 33/3/33 33/2/13
f 34/4/13 33/2/13 34/1/13
f 35/4/34 34/3/13 34/2/13
f 35/4/34 34/2/13 35/1/13
f 36/4/35 35/3/34 35/2/13
f 36/4/35 35/2/13 36/1/13
f 30/4/31 36/3/35 36/2/13
f 30/4/31 36/2/13 30/1/13
f 30/1/31 37/4/36 38/3/37
f 30/1/31 38/3/37 36/2/35
f 36/1/35 38/4/37 39/3/38
f 36/1/35 39/3/38 35/2/34
f 35/1/34 39/4/38 40/3/39
f 35/1/34 40/3/39 34/2/40
f 34/1/40 40/4/39 41/3/41
f 34/1/40 41/3/41 33/2/33
f 33/1/33 41/4/41 42/3/42
f 33/1/33 42/3/42 32/2/32
f 32/1/32 42/4/42 43/3/43
f 32/1/32 43/3/43 31/2/44
f 31/1/44 43/4/43 44/3/45
f 31/1/44 44/3/45 29/2/46
f 29/1/46 44/4/45 37/3/47
f 29/1/46 37/3/47 30/2/48
f 44/1/49 45/4/50 46/3/49
f 44/1/49 46/3/49 37/2/51
f 22/1/52 21/2/53 47/3/54
f 22/1/52 47/3/54 48/4/55
f 23/1/56 22/2/52 48/3/55
f 23/1/56 48/3/55 49/4/57
f 24/1/58 23/2/56 49/3/57
f 24/1/58 49/3/57 50/4/59
f 25/1/60 24/2/58 50/3/59
f 25/1/60 50/3/59 51/4/61
f 26/1/62 25/2/60 51/3/61
f 26/1/62 51/3/61 52/4/63
f 27/1/64 26/2/62 52/3/63
f 27/1/64 52/3/63 53/4/65
f 28/1/66 27/2/64 53/3/65
f 28/1/66 53/3/65 54/4/67
f 21/1/68 28/2/66 54/3/67
f 21/1/68 54/3/67 47/4/69
f 28/1/70 21/2/71 47/3/72
f 28/1/70 47/3/72 54/4/73
f 27/1/74 28/2/70 54/3/73
f 27/1/74 54/3/73 53/4/75
f 26/1/76 27/2/74 53/3/75
f 26/1/76 53/3/75 52/4/77
f 25/1/78 26/2/76 52/3/77
f 25/1/78 52/3/77 51/4/79
f 24/1/80 25/2/78 51/3/79
f 24/1/80 51/3/79 50/4/81
f 23/1/82 24/2/80 50/3/81
f 23/1/82 50/3/81 49/4/83
f 22/1/84 23/2/82 49/3/83
f 22/1/84 49/3/83 48/4/85
f 21/1/86 22/2/84 48/3/85
f 21/1/86 48/3/85 47/4/87
f 47/1/87 48/2/85 55/3/88
f 47/1/87 55/3/88 56/4/89
f 48/1/85 49/2/83 57/3/90
f 48/1/85 57/3/90 55/4/88
f 49/1/83 50/2/81 58/3/91
f 49/1/83 58/3/91 57/4/90
f 50/1/81 51/2/79 59/3/92
f 50/1/81 59/3/92 58/4/91
f 51/1/79 52/2/77 60/3/93
f 51/1/79 60/3/93 59/4/92
f 52/1/77 53/2/75 61/3/94
f 52/1/77 61/3/94 60/4/93
f 53/1/75 54/2/73 62/3/95
f 53/1/75 62/3/95 61/4/94
f 54/1/73 47/2/96 56/3/97
f 54/1/73 56/3/97 62/4/95
f 47/1/98 54/2/67 62/3/99
f 47/1/98 62/3/99 56/4/100
f 54/1/67 53/2/65 61/3/101
f 54/1/67 61/3/101 62/4/99
f 53/1/65 52/2/63 60/3/102
f 53/1/65 60/3/102 61/4/101
f 52/1/63 51/2/61 59/3/103
f 52/1/63 59/3/103 60/4/102
f 51/1/61 50/2/59 58/3/104
f 51/1/61 58/3/104 59/4/103
f 50/1/59 49/2/57 57/3/105
f 50/1/59 57/3/105 58/4/104
f 49/1/57 48/2/55 55/3/106
f 49/1/57 55/3/106 57/4/105
f 48/1/55 47/2/54 56/3/107
f 48/1/55 56/3/107 55/4/106
f 62/4/13 56/3/13 56/2/13
f 62/4/13 56/2/13 62/1/13
f 61/4/13 62/3/13 62/2/13
f 61/4/13 62/2/13 61/1/13
f 60/4/13 61/3/13 61/2/13
f 60/4/13 61/2/13 60/1/13
f 59/4/13 60/3/13 60/2/13
f 59/4/13 60/2/13 59/1/13
f 58/4/13 59/3/13 59/2/13
f 58/4/13 59/2/13 58/1/13
f 57/4/13 58/3/13 58/2/13
f 57/4/13 58/2/13 57/1/13
f 55/4/13 57/3/13 57/2/13
f 55/4/13 57/2/13 55/1/13
f 56/4/13 55/3/13 55/2/13
f 56/4/13 55/2/13 56/1/13
g Photo_Cube_Material_VaticanMuseum_4
usemtl Material_VaticanMuseum
v 692.3284 193.95612 285.16016
v 639.72034 193.95612 285.16016
v 639.68994 153.92242 285.16016
v 692.32837 153.92242 285.16016
vn 0 -0.0000001 1.0
vn -0 -0.0000001 1.0
f 63/4/108 64/1/108 65/2/108
f 63/4/109 65/2/109 66/3/109
