# 
# Generated by Sweet Home 3D - lun ago 30 10:48:00 CDT 2021
# http://www.sweethome3d.com/
# 
mtllib lampara.mtl
g ground_1
usemtl ground_1
v 167.802 0.0 386.88864
v 167.802 0.0 436.88864
v 212.802 0.0 436.88864
v 212.802 0.0 386.88864
vn 0.0 1.0 0.0
vn 0.0 0.0 0.0
f 1//1 2//1 3//1
f 1//1 3//1 4//1
g 9_9_2
usemtl Lamp
v 193.15489 155.13158 389.36142
v 187.44911 155.13158 389.36142
v 190.302 153.42105 389.36142
v 193.15489 158.55263 389.36142
v 187.44911 158.55263 389.36142
v 190.302 160.26315 389.36142
v 184.59624 160.26315 386.88864
v 190.302 163.6842 386.88864
v 184.59624 153.42105 386.88864
v 190.302 150.0 386.88864
v 196.00777 153.42105 386.88864
v 196.00777 160.26315 386.88864
vn 0.0 0.0 1.0
vn -0.33138937 0.5527049 0.7646558
vn -0.33138943 0.55270463 0.76465595
vn -0.6549739 0.0 0.7556515
vn -0.33138928 -0.5527052 0.7646556
vn -0.33138934 -0.55270493 0.7646557
vn 0.33138934 -0.55270493 0.7646557
vn 0.33138928 -0.5527052 0.7646556
vn 0.6549739 0.0 0.7556515
vn 0.33138937 0.5527049 0.7646558
vn 0.33138943 0.55270463 0.76465595
vn -0.0000003 -0.0 -1.0
vn 0.0000002 0.0000003 -1.0
vn -0.0000002 0.0000003 -1.0
vn 0.0000003 0.0 -1.0
f 5//3 6//3 7//3
f 6//3 8//3 9//3
f 10//3 9//3 8//3
f 8//3 6//3 5//3
f 10//4 11//4 9//4
f 12//5 11//5 10//5
f 6//6 11//6 13//6
f 11//6 6//6 9//6
f 7//7 13//7 14//7
f 13//8 7//8 6//8
f 5//9 7//9 15//9
f 14//10 15//10 7//10
f 8//11 5//11 16//11
f 15//11 16//11 5//11
f 16//12 10//12 8//12
f 12//13 10//13 16//13
f 12//14 16//14 15//14
f 12//15 15//15 14//15
f 12//16 14//16 13//16
f 12//17 13//17 11//17
g 8_8_3
usemtl Lamp
v 191.94911 155.13158 388.53717
v 188.65489 155.13158 419.03488
v 188.65489 155.13158 388.53717
v 191.94911 155.13158 419.03488
v 188.65489 163.6842 419.03488
v 191.94911 163.6842 419.03488
v 188.65489 163.6842 415.73785
v 188.65489 158.55263 415.73785
v 188.65489 158.55263 388.53717
v 191.94911 158.55263 388.53717
v 191.94911 158.55263 415.73785
v 191.94911 163.6842 415.73785
vn 0.0 -1.0 0.0
vn 0.0 -0.0000001 1.0
vn -1.0 0.0 0.0
vn 0.0 0.0 -1.0
vn 1.0 0.0 0.0
vn 0.0 0.0000002 -1.0
f 17//18 18//18 19//18
f 18//18 17//18 20//18
f 21//19 18//19 22//19
f 20//19 22//19 18//19
f 23//20 18//20 21//20
f 18//20 23//20 24//20
f 25//20 19//20 24//20
f 19//20 18//20 24//20
f 25//21 17//21 19//21
f 26//21 17//21 25//21
f 20//22 27//22 22//22
f 28//22 22//22 27//22
f 26//22 27//22 17//22
f 17//22 27//22 20//22
f 28//23 27//23 23//23
f 24//23 23//23 27//23
f 27//1 25//1 24//1
f 25//1 27//1 26//1
f 23//1 21//1 22//1
f 23//1 22//1 28//1
g 4_4_4
usemtl Glass
v 193.08101 165.2764 425.10013
v 181.05466 196.30255 436.3132
v 187.523 165.2764 425.10013
v 199.54935 196.30255 436.3132
vn 0.0 -0.3398914 0.94046474
vn 0.0 -0.33989134 0.94046474
f 29//24 30//24 31//24
f 30//25 29//25 32//25
g 6_6_5
usemtl Glass
v 198.36508 165.28583 415.92966
v 202.05841 196.29312 399.91965
v 211.29388 196.29312 415.92966
v 195.594 165.28583 411.12592
vn 0.81470114 -0.33969796 -0.46996522
vn 0.81470126 -0.33969793 -0.46996507
f 33//26 34//26 35//26
f 34//27 33//27 36//27
g 1_1_6
usemtl Lamp
v 194.41978 163.6842 410.24805
v 186.18422 163.6842 410.24805
v 194.41978 163.6842 424.5247
v 186.18422 163.6842 424.5247
v 182.06644 163.6842 417.38638
v 198.53757 163.6842 417.38638
v 169.30124 196.30255 415.93823
v 167.802 197.89473 417.38638
v 179.052 197.89473 397.8841
v 178.54858 196.30255 399.90765
v 185.01692 165.2764 411.12073
v 182.23792 165.2764 415.93823
v 187.53093 165.28583 409.66922
v 201.552 197.89473 397.8841
v 199.53748 196.29312 398.46295
v 193.07307 165.28583 409.66922
v 181.06653 196.29312 398.46295
v 212.802 197.89473 417.38638
v 202.05841 196.29312 434.8531
v 201.552 197.89473 436.88864
v 195.594 165.28583 423.64682
v 211.29388 196.29312 418.84308
v 198.36508 165.28583 418.84308
v 179.052 197.89473 436.88864
v 178.54858 196.30255 434.86508
v 169.30124 196.30255 418.8345
v 182.23792 165.2764 418.8345
v 185.01692 165.2764 423.652
v 186.18422 215.0 417.38638
v 188.2431 215.0 413.8172
v 192.3609 215.0 413.8172
v 194.41978 215.0 417.38638
v 192.3609 215.0 420.95554
v 188.2431 215.0 420.95554
vn -0.814701 -0.33969876 -0.469965
vn -0.81470066 -0.33969948 -0.46996495
vn -0.81470263 -0.33969754 -0.4699631
vn -0.814702 -0.33969772 -0.4699639
vn -0.814702 -0.33969557 -0.46996576
vn -0.8147005 -0.3396976 -0.46996686
vn -0.81470174 -0.3396962 -0.4699655
vn -0.8147009 -0.3396978 -0.4699658
vn 0.0 -0.33988968 -0.94046533
vn 0.0000015 -0.33989075 -0.940465
vn 0.0 -0.33989224 -0.9404644
vn -0.0000013 -0.3398908 -0.94046485
vn -0.0000014 -0.33989078 -0.9404649
vn 0.0 -0.3398922 -0.9404644
vn 0.0000011 -0.3398908 -0.940465
vn 0.8147018 -0.33969605 -0.4699655
vn 0.814701 -0.33969852 -0.469965
vn 0.81470096 -0.3396978 -0.4699658
vn 0.8147006 -0.33969983 -0.4699649
vn 0.8147023 -0.33969757 -0.46996352
vn 0.81470233 -0.3396976 -0.4699637
vn 0.81470174 -0.33969632 -0.46996537
vn 0.81470025 -0.3396976 -0.469967
vn 0.8147021 -0.33969775 0.46996382
vn 0.8147017 -0.33969635 0.46996543
vn 0.81470066 -0.33969954 0.46996486
vn 0.8147011 -0.33969843 0.4699652
vn 0.81470084 -0.33969796 0.4699658
vn 0.81470025 -0.33969766 0.46996695
vn 0.8147018 -0.33969605 0.46996543
vn 0.8147023 -0.33969772 0.4699634
vn -0.0000018 -0.33989096 0.9404649
vn 0.0 -0.3398897 0.9404654
vn 0.0 -0.3398916 0.9404647
vn 0.0 -0.33989155 0.9404647
vn 0.0000002 -0.33989134 0.9404648
vn 0.0000017 -0.33989096 0.9404649
vn -0.0000006 -0.3398912 0.9404648
vn 0.0 -0.33988968 0.9404654
vn -0.8147007 -0.33969945 0.4699649
vn -0.81470096 -0.33969855 0.46996507
vn -0.81470096 -0.33969793 0.4699658
vn -0.81470203 -0.33969784 0.46996394
vn -0.8147004 -0.33969775 0.46996686
vn -0.8147015 -0.33969653 0.4699656
vn -0.814702 -0.33969545 0.4699656
vn -0.8147028 -0.33969763 0.46996278
vn -0.63402474 0.68135613 -0.36574093
vn -0.6340248 0.68135613 -0.3657409
vn 0.0 0.68159074 -0.7317336
vn 0.0 0.68159074 -0.73173356
vn 0.63402474 0.68135613 -0.36574093
vn 0.63402486 0.6813561 -0.3657409
vn 0.6340248 0.6813561 0.36574095
vn 0.63402486 0.6813561 0.36574093
vn 0.0 0.68159056 0.73173374
vn 0.0 0.6815906 0.73173374
vn -0.63402486 0.6813561 0.36574093
vn -0.6340248 0.6813561 0.36574098
vn 0.8147012 0.33969828 0.4699651
vn 0.81470066 0.33969945 0.46996495
vn 0.8147027 0.33969742 0.46996316
vn 0.81470215 0.33969766 0.46996388
vn 0.81470186 0.33969557 0.4699657
vn 0.8147005 0.3396976 0.46996683
vn 0.8147018 0.3396962 0.46996543
vn 0.8147009 0.3396978 0.46996585
vn 0.0 0.33988968 0.94046533
vn -0.0000015 0.33989072 0.940465
vn 0.0 0.3398922 0.9404644
vn 0.0000011 0.3398908 0.940465
vn 0.0000015 0.33989072 0.940465
vn -0.0000013 0.3398908 0.94046485
vn -0.8147018 0.33969614 0.4699655
vn -0.8147011 0.33969846 0.469965
vn -0.81470096 0.3396978 0.4699657
vn -0.8147006 0.3396997 0.4699649
vn -0.81470233 0.33969754 0.46996346
vn -0.8147023 0.33969757 0.46996367
vn -0.81470174 0.33969632 0.4699654
vn -0.8147003 0.33969763 0.469967
vn -0.8147021 0.33969775 -0.46996382
vn -0.8147017 0.33969638 -0.46996543
vn -0.8147008 0.33969948 -0.46996492
vn -0.814701 0.33969873 -0.46996513
vn -0.81470084 0.33969796 -0.4699658
vn -0.81470037 0.33969766 -0.46996695
vn -0.81470186 0.33969614 -0.46996546
vn -0.81470215 0.3396977 -0.46996358
vn 0.000002 0.33989105 -0.9404648
vn 0.0 0.3398897 -0.9404654
vn 0.0 0.33989152 -0.9404647
vn 0.0 0.33989155 -0.9404647
vn -0.0000006 0.3398912 -0.9404648
vn -0.000002 0.33989105 -0.9404648
vn 0.0000002 0.33989134 -0.9404648
vn 0.0 0.33988968 -0.9404654
vn 0.8147007 0.3396994 -0.4699649
vn 0.81470096 0.3396986 -0.4699651
vn 0.81470084 0.3396979 -0.4699659
vn 0.81470203 0.3396978 -0.46996397
vn 0.81470037 0.33969775 -0.4699669
vn 0.8147015 0.33969656 -0.46996564
vn 0.814702 0.33969545 -0.46996558
vn 0.8147027 0.3396975 -0.46996287
vn 0.6340249 -0.6813561 0.36574087
vn 0.63402486 -0.6813561 0.3657409
vn 0.0 -0.68159074 0.7317336
vn 0.0 -0.68159074 0.73173356
vn -0.63402474 -0.68135613 0.36574093
vn -0.6340248 -0.68135613 0.3657409
vn -0.6340248 -0.6813561 -0.36574098
vn -0.63402486 -0.6813561 -0.36574095
vn -0.0 -0.6815906 -0.73173374
vn 0.63402486 -0.681356 -0.36574095
vn 0.6340248 -0.6813561 -0.36574095
f 37//18 23//18 38//18
f 28//18 37//18 22//18
f 22//18 37//18 39//18
f 38//18 40//18 41//18
f 21//18 38//18 23//18
f 39//18 21//18 22//18
f 39//18 40//18 21//18
f 21//18 40//18 38//18
f 42//18 39//18 37//18
f 28//18 23//18 37//18
f 43//28 44//28 45//28
f 43//29 45//29 46//29
f 38//30 47//30 46//30
f 45//31 38//31 46//31
f 47//32 38//32 48//32
f 44//33 48//33 41//33
f 38//34 41//34 48//34
f 48//35 44//35 43//35
f 38//36 49//36 37//36
f 49//37 38//37 45//37
f 50//38 51//38 45//38
f 51//39 50//39 52//39
f 37//40 52//40 50//40
f 51//41 53//41 45//41
f 53//42 49//42 45//42
f 52//36 37//36 49//36
f 33//43 42//43 37//43
f 54//44 35//44 50//44
f 35//45 54//45 42//45
f 34//46 50//46 35//46
f 50//47 34//47 37//47
f 34//48 36//48 37//48
f 36//49 33//49 37//49
f 35//50 42//50 33//50
f 39//51 55//51 56//51
f 57//52 39//52 42//52
f 55//53 54//53 56//53
f 54//54 55//54 58//54
f 59//55 54//55 58//55
f 54//56 59//56 42//56
f 59//57 57//57 42//57
f 57//58 55//58 39//58
f 29//59 39//59 56//59
f 40//60 29//60 31//60
f 32//61 56//61 30//61
f 60//62 30//62 56//62
f 30//63 60//63 31//63
f 40//64 31//64 60//64
f 32//65 29//65 56//65
f 40//66 39//66 29//66
f 44//67 61//67 60//67
f 61//68 44//68 62//68
f 62//69 44//69 41//69
f 61//70 40//70 60//70
f 62//71 41//71 63//71
f 63//72 41//72 64//72
f 41//73 40//73 64//73
f 64//74 40//74 61//74
f 65//75 66//75 45//75
f 44//76 65//76 45//76
f 45//77 66//77 67//77
f 50//78 45//78 67//78
f 50//79 67//79 68//79
f 54//80 50//80 68//80
f 68//81 69//81 56//81
f 54//82 68//82 56//82
f 70//83 60//83 69//83
f 56//84 69//84 60//84
f 60//85 65//85 44//85
f 65//86 60//86 70//86
f 66//1 65//1 70//1
f 69//1 67//1 66//1
f 69//1 68//1 67//1
f 69//1 66//1 70//1
f 37//1 38//1 23//1
f 28//1 22//1 37//1
f 22//1 39//1 37//1
f 38//1 41//1 40//1
f 21//1 23//1 38//1
f 39//1 22//1 21//1
f 39//1 21//1 40//1
f 21//1 38//1 40//1
f 42//1 37//1 39//1
f 28//1 37//1 23//1
f 43//87 45//87 44//87
f 43//88 46//88 45//88
f 38//89 46//89 47//89
f 45//90 46//90 38//90
f 47//91 48//91 38//91
f 44//92 41//92 48//92
f 38//93 48//93 41//93
f 48//94 43//94 44//94
f 38//95 37//95 49//95
f 49//96 45//96 38//96
f 50//97 45//97 51//97
f 51//98 52//98 50//98
f 37//99 50//99 52//99
f 51//97 45//97 53//97
f 53//100 45//100 49//100
f 52//95 49//95 37//95
f 33//101 37//101 42//101
f 54//102 50//102 35//102
f 35//103 42//103 54//103
f 34//104 35//104 50//104
f 50//105 37//105 34//105
f 34//106 37//106 36//106
f 36//107 37//107 33//107
f 35//108 33//108 42//108
f 39//109 56//109 55//109
f 57//110 42//110 39//110
f 55//111 56//111 54//111
f 54//112 58//112 55//112
f 59//113 58//113 54//113
f 54//114 42//114 59//114
f 59//115 42//115 57//115
f 57//116 39//116 55//116
f 29//117 56//117 39//117
f 40//118 31//118 29//118
f 32//119 30//119 56//119
f 60//120 56//120 30//120
f 30//121 31//121 60//121
f 40//122 60//122 31//122
f 32//123 56//123 29//123
f 40//124 29//124 39//124
f 44//125 60//125 61//125
f 61//126 62//126 44//126
f 62//127 41//127 44//127
f 61//128 60//128 40//128
f 62//129 63//129 41//129
f 63//130 64//130 41//130
f 41//131 64//131 40//131
f 64//132 61//132 40//132
f 65//133 45//133 66//133
f 44//134 45//134 65//134
f 45//135 67//135 66//135
f 50//136 67//136 45//136
f 50//137 68//137 67//137
f 54//138 68//138 50//138
f 68//139 56//139 69//139
f 54//140 56//140 68//140
f 70//141 69//141 60//141
f 56//141 60//141 69//141
f 60//142 44//142 65//142
f 65//143 70//143 60//143
f 66//18 70//18 65//18
f 69//18 66//18 67//18
f 69//18 67//18 68//18
f 69//18 70//18 66//18
g 2_2_7
usemtl Glass
vn -0.8147011 -0.33969796 -0.4699653
vn -0.81470114 -0.33969796 -0.4699652
f 43//144 47//144 48//144
f 47//145 43//145 46//145
g 7_7_8
usemtl Glass
vn 0.0 -0.33989108 -0.94046485
vn 0.0 -0.33989105 -0.94046485
f 49//146 51//146 52//146
f 51//147 49//147 53//147
g 3_3_9
usemtl Glass
vn -0.8147012 -0.33969814 0.46996522
vn -0.814701 -0.33969805 0.4699653
f 62//148 64//148 61//148
f 64//149 62//149 63//149
g 5_5_10
usemtl Glass
vn 0.81470114 -0.33969808 0.46996522
vn 0.8147012 -0.3396981 0.46996504
f 57//150 58//150 55//150
f 58//151 57//151 59//151
