# 
# Generated by Sweet Home 3D - lun ago 30 13:18:38 CDT 2021
# http://www.sweethome3d.com/
# 
mtllib Papa_Fco.mtl
g ground_1
usemtl ground_1
v 309.5 0.0 343.56018
v 309.5 0.0 344.06018
v 327.3 0.0 344.06018
v 327.3 0.0 343.56018
vn 0.0 1.0 0.0
vn 0.0 0.0 0.0
f 1//1 2//1 3//1
f 1//1 3//1 4//1
g 2
usemtl Retrato_del_Papa_Francisco
v 310.9 1.4 344.06018
v 325.9 22.400002 344.06018
v 325.9 1.4 344.06018
v 310.9 22.400002 344.06018
vt 1.0 0.0 0
vt -0 1.0 0
vt -0 0.0 0
vt 1.0 1.0 0
vn 0 0.0 -1.0
vn -0 -0.0 1.0
f 5/1/3 6/2/3 7/3/3
f 6/2/3 5/1/3 8/4/3
f 8/4/4 5/1/4 6/2/4
f 7/3/4 6/2/4 5/1/4
g 3
usemtl edge_color1396919255
l 5 7
l 8 5
l 6 8
l 7 6
g 4
usemtl _0043_SaddleBrown
v 310.9 22.400002 343.7602
v 325.9 22.400002 343.7602
v 325.9 1.4 343.7602
v 310.9 1.4 343.7602
vn -0 -1.0 -0
vn 0 1.0 0
vn -1.0 0 -0
vn 1.0 -0 0
f 9//5 6//5 8//5
f 6//5 9//5 10//5
f 10//6 9//6 6//6
f 8//6 6//6 9//6
f 6//7 11//7 7//7
f 11//7 6//7 10//7
f 10//8 6//8 11//8
f 7//8 11//8 6//8
f 9//8 5//8 12//8
f 5//8 9//8 8//8
f 8//7 9//7 5//7
f 12//7 5//7 9//7
f 11//6 5//6 7//6
f 5//6 11//6 12//6
f 12//5 11//5 5//5
f 7//5 5//5 11//5
g 5
usemtl edge_color1396919255
l 10 6
l 6 8
l 8 9
l 9 10
l 7 11
l 7 6
l 10 11
l 8 5
l 5 12
l 12 9
l 5 7
l 11 12
g 6
usemtl _0043_SaddleBrown
v 310.1732 23.126793 343.6602
v 326.6068 23.106813 343.7084
v 310.19318 23.106813 343.7084
v 326.6268 23.126793 343.6602
v 326.6068 0.69318503 343.7084
v 326.6268 0.6732052 343.6602
v 326.6 23.1 343.7602
v 310.19998 23.1 343.7602
v 310.19318 0.69318503 343.7084
v 310.1732 0.6732052 343.6602
v 310.14142 23.158579 343.61877
v 326.65857 23.158579 343.61877
v 326.6 0.7000001 343.7602
v 326.65857 0.6414214 343.61877
v 310.19998 0.7000001 343.7602
v 310.14142 0.6414214 343.61877
v 310.1 23.199999 343.58698
v 326.69998 23.199999 343.58698
v 326.69998 0.6000001 343.58698
v 310.1 0.6000001 343.58698
v 310.05176 23.248238 343.567
v 326.74823 23.248238 343.567
v 326.74823 0.5517637 343.567
v 310.05176 0.5517637 343.567
v 310.0 23.3 343.56018
v 326.8 23.3 343.56018
v 326.8 0.50000006 343.56018
v 310.0 0.50000006 343.56018
vn -0 -0.84739923 -0.5309563
vn -0 -0.9607498 -0.27741638
vn 0 0.84739923 0.5309563
vn 0 0.9607498 0.27741638
vn -0.9607498 0 -0.27741638
vn -0.84739923 0 -0.5309563
vn 0.9607498 -0 0.27741638
vn 0.84739923 -0 0.5309563
vn -0 -0.9914449 -0.13052619
vn 0 0.9914449 0.13052619
vn 0.84739923 -0 -0.5309563
vn 0.9607498 -0 -0.27741638
vn -0.9607498 0 0.27741638
vn -0.84739923 0 0.5309563
vn 0 -0.6715888 -0.74092406
vn -0 0.6715888 0.74092406
vn 0 0.84739923 -0.5309563
vn 0 0.9607498 -0.27741638
vn -0 -0.84739923 0.5309563
vn -0 -0.9607498 0.27741638
vn -0.9914448 0 -0.13052617
vn 0.9914448 -0 0.13052617
vn -0.6715888 0 -0.74092406
vn 0.6715888 -0 0.74092406
vn 0.9914448 -0 -0.13052617
vn -0.9914448 0 0.13052617
vn 0.6715888 -0 -0.74092406
vn -0.6715888 0 0.74092406
vn 0 -0.44903904 -0.8935121
vn -0 0.44903904 0.8935121
vn 0 0.9914449 -0.13052619
vn -0 -0.9914449 0.13052619
vn 0 0.6715888 -0.74092406
vn -0 -0.6715888 0.74092406
vn -0.44903907 0 -0.8935121
vn 0.44903907 -0 0.8935121
vn 0.44903907 -0 -0.8935121
vn -0.44903907 0 0.8935121
vn 0 -0.19730163 -0.98034286
vn -0 0.19730163 0.98034286
vn 0 0.44903904 -0.8935121
vn -0 -0.44903904 0.8935121
vn -0.19730163 0 -0.98034286
vn 0.19730163 -0 0.98034286
vn 0.19730163 -0 -0.98034286
vn -0.19730163 0 0.98034286
vn 0.016413452 -0.01641345 -0.9997305
vn -0.016413452 -0.01641345 -0.9997305
vn -0.016413452 0.01641345 0.9997305
vn 0.016413452 0.01641345 0.9997305
vn 0 0.19730163 -0.98034286
vn -0 -0.19730163 0.98034286
vn -0.016413452 0.01641345 -0.9997305
vn 0.016413452 -0.01641345 0.9997305
vn 0.016413452 0.01641345 -0.9997305
vn -0.016413452 -0.01641345 0.9997305
f 13//9 14//10 15//10
f 14//10 13//9 16//9
f 16//11 13//11 14//12
f 15//12 14//12 13//11
f 17//13 16//14 18//14
f 16//14 17//13 14//13
f 14//15 17//15 16//16
f 18//16 16//16 17//15
f 15//10 19//17 20//17
f 19//17 15//10 14//10
f 14//12 15//12 19//18
f 20//18 19//18 15//12
f 13//19 21//20 22//19
f 21//20 13//19 15//20
f 15//21 13//22 21//21
f 22//22 21//21 13//22
f 23//23 16//9 13//9
f 16//9 23//23 24//23
f 24//24 23//24 16//11
f 13//11 16//11 23//24
f 18//25 21//26 17//26
f 21//26 18//25 22//25
f 22//27 18//27 21//28
f 17//28 21//28 18//27
f 25//29 14//13 17//13
f 14//13 25//29 19//29
f 19//30 25//30 14//15
f 17//15 14//15 25//30
f 18//14 24//31 26//31
f 24//31 18//14 16//14
f 16//16 18//16 24//32
f 26//32 24//32 18//16
f 25//3 11//3 19//3
f 11//3 25//3 27//3
f 11//3 27//3 12//3
f 12//3 27//3 9//3
f 19//3 10//3 20//3
f 10//3 19//3 11//3
f 20//3 10//3 9//3
f 20//3 9//3 27//3
f 27//4 9//4 20//4
f 9//4 10//4 20//4
f 11//4 19//4 10//4
f 20//4 10//4 19//4
f 9//4 27//4 12//4
f 12//4 27//4 11//4
f 27//4 25//4 11//4
f 19//4 11//4 25//4
f 15//20 27//33 21//20
f 27//33 15//20 20//33
f 20//34 15//21 27//34
f 21//21 27//34 15//21
f 23//35 22//19 28//35
f 22//19 23//35 13//19
f 13//22 23//36 22//22
f 28//36 22//22 23//36
f 24//23 29//37 30//37
f 29//37 24//23 23//23
f 23//24 24//24 29//38
f 30//38 29//38 24//24
f 17//26 27//39 25//39
f 27//39 17//26 21//26
f 21//28 17//28 27//40
f 25//40 27//40 17//28
f 26//41 22//25 18//25
f 22//25 26//41 28//41
f 28//42 26//42 22//27
f 18//27 22//27 26//42
f 26//31 30//43 31//43
f 30//43 26//31 24//31
f 24//32 26//32 30//44
f 31//44 30//44 26//32
f 32//45 23//35 28//35
f 23//35 32//45 29//45
f 29//46 32//46 23//36
f 28//36 23//36 32//46
f 30//37 33//47 34//47
f 33//47 30//37 29//37
f 29//38 30//38 33//48
f 34//48 33//48 30//38
f 32//49 26//41 31//49
f 26//41 32//49 28//41
f 28//42 32//50 26//42
f 31//50 26//42 32//50
f 31//43 34//51 35//51
f 34//51 31//43 30//43
f 30//44 31//44 34//52
f 35//52 34//52 31//44
f 36//53 29//45 32//45
f 29//45 36//53 33//53
f 33//54 36//54 29//46
f 32//46 29//46 36//54
f 34//47 37//55 38//56
f 37//55 34//47 33//47
f 33//48 34//48 37//57
f 38//58 37//57 34//48
f 36//59 31//49 35//59
f 31//49 36//59 32//49
f 32//50 36//60 31//50
f 35//60 31//50 36//60
f 35//51 38//56 39//61
f 38//56 35//51 34//51
f 34//52 35//52 38//58
f 39//62 38//58 35//52
f 40//63 33//53 36//53
f 33//53 40//63 37//55
f 37//57 40//64 33//54
f 36//54 33//54 40//64
f 40//63 35//59 39//61
f 35//59 40//63 36//59
f 36//60 40//64 35//60
f 39//62 35//60 40//64
g 7
usemtl edge_color1396919255
l 16 14
l 14 15
l 15 13
l 16 13
l 17 18
l 17 14
l 18 16
l 14 19
l 19 20
l 20 15
l 15 21
l 21 22
l 13 22
l 24 16
l 13 23
l 24 23
l 21 17
l 22 18
l 25 17
l 25 19
l 18 26
l 26 24
l 20 27
l 27 25
l 9 10
l 12 9
l 11 12
l 10 11
l 27 21
l 22 28
l 23 28
l 30 24
l 23 29
l 30 29
l 28 26
l 26 31
l 31 30
l 28 32
l 29 32
l 34 30
l 29 33
l 34 33
l 32 31
l 31 35
l 35 34
l 32 36
l 33 36
l 38 34
l 33 37
l 38 37
l 36 35
l 35 39
l 39 38
l 36 40
l 37 40
l 40 39
g 8
usemtl _0043_SaddleBrown
v 327.3 23.800001 343.56018
v 309.5 23.800001 344.06018
v 327.3 23.800001 344.06018
v 309.5 23.800001 343.56018
v 327.3 0 344.06018
v 327.3 0 343.56018
v 309.5 0 343.56018
v 309.5 0 344.06018
f 41//6 42//6 43//6
f 42//6 41//6 44//6
f 44//5 41//5 42//5
f 43//5 42//5 41//5
f 41//8 45//8 46//8
f 45//8 41//8 43//8
f 43//7 41//7 45//7
f 46//7 45//7 41//7
f 47//3 39//61 46//3
f 39//61 47//3 40//63
f 40//63 47//3 37//55
f 41//3 38//56 44//3
f 38//56 41//3 46//3
f 38//56 46//3 39//61
f 44//3 38//56 37//55
f 44//3 37//55 47//3
f 47//4 37//57 44//4
f 37//57 38//58 44//4
f 39//62 46//4 38//58
f 46//4 41//4 38//58
f 44//4 38//58 41//4
f 37//57 47//4 40//64
f 40//64 47//4 39//62
f 46//4 39//62 47//4
f 42//7 47//7 48//7
f 47//7 42//7 44//7
f 44//8 42//8 47//8
f 48//8 47//8 42//8
f 43//4 6//4 45//4
f 6//4 43//4 42//4
f 6//4 42//4 8//4
f 8//4 42//4 5//4
f 45//4 7//4 48//4
f 7//4 45//4 6//4
f 48//4 7//4 5//4
f 48//4 5//4 42//4
f 42//3 5//3 48//3
f 5//3 7//3 48//3
f 6//3 45//3 7//3
f 48//3 7//3 45//3
f 5//3 42//3 8//3
f 8//3 42//3 6//3
f 42//3 43//3 6//3
f 45//3 6//3 43//3
f 47//5 45//5 48//5
f 45//5 47//5 46//5
f 46//6 47//6 45//6
f 48//6 45//6 47//6
g 9
usemtl edge_color1396919255
l 43 41
l 41 44
l 44 42
l 43 42
l 46 45
l 46 41
l 45 43
l 44 47
l 47 46
l 38 37
l 37 40
l 40 39
l 39 38
l 47 48
l 42 48
l 48 45
l 8 5
l 6 8
l 7 6
l 5 7
